<?xml version="1.0" encoding="UTF-8" standalone="no"?>
<svg
   width="15"
   height="60"
   viewBox="0 0 1792 7168"
   version="1.1"
   id="svg5989"
   sodipodi:docname="calendar-icons.svg"
   inkscape:version="1.2.2 (b0a8486, 2022-12-01)"
   xmlns:inkscape="http://www.inkscape.org/namespaces/inkscape"
   xmlns:sodipodi="http://sodipodi.sourceforge.net/DTD/sodipodi-0.dtd"
   xmlns:xlink="http://www.w3.org/1999/xlink"
   xmlns="http://www.w3.org/2000/svg"
   xmlns:svg="http://www.w3.org/2000/svg">
  <sodipodi:namedview
     id="namedview5991"
     pagecolor="#ffffff"
     bordercolor="#000000"
     borderopacity="0.25"
     inkscape:showpageshadow="2"
     inkscape:pageopacity="0.0"
     inkscape:pagecheckerboard="0"
     inkscape:deskcolor="#d1d1d1"
     showgrid="false"
     inkscape:zoom="3.9333333"
     inkscape:cx="7.7542373"
     inkscape:cy="30.508475"
     inkscape:window-width="1393"
     inkscape:window-height="608"
     inkscape:window-x="0"
     inkscape:window-y="25"
     inkscape:window-maximized="0"
     inkscape:current-layer="svg5989" />
  <defs
     id="defs5979">
    <g
       id="previous">
      <path
         d="M1037 1395l102-102q19-19 19-45t-19-45l-307-307 307-307q19-19 19-45t-19-45l-102-102q-19-19-45-19t-45 19l-454 454q-19 19-19 45t19 45l454 454q19 19 45 19t45-19zm627-499q0 209-103 385.5t-279.5 279.5-385.5 103-385.5-103-279.5-279.5-103-385.5 103-385.5 279.5-279.5 385.5-103 385.5 103 279.5 279.5 103 385.5z"
         id="path5973" />
    </g>
    <g
       id="next">
      <path
         d="M845 1395l454-454q19-19 19-45t-19-45l-454-454q-19-19-45-19t-45 19l-102 102q-19 19-19 45t19 45l307 307-307 307q-19 19-19 45t19 45l102 102q19 19 45 19t45-19zm819-499q0 209-103 385.5t-279.5 279.5-385.5 103-385.5-103-279.5-279.5-103-385.5 103-385.5 279.5-279.5 385.5-103 385.5 103 279.5 279.5 103 385.5z"
         id="path5976" />
    </g>
  </defs>
  <use
     xlink:href="#previous"
     x="0"
     y="0"
     fill="#333333"
     id="use5981"
     style="fill:#000000;fill-opacity:1" />
  <use
     xlink:href="#previous"
     x="0"
     y="1792"
     fill="#000000"
     id="use5983"
     style="fill:#ff0000;fill-opacity:1" />
  <use
     xlink:href="#next"
     x="0"
     y="3584"
     fill="#333333"
     id="use5985"
     style="fill:#000000;fill-opacity:1" />
  <use
     xlink:href="#next"
     x="0"
     y="5376"
     fill="#000000"
     id="use5987"
     style="fill:#ff0000;fill-opacity:1" />
</svg>
