<?xml version="1.0" encoding="UTF-8" standalone="no"?>
<svg
   width="13"
   height="13"
   viewBox="0 0 1792 1792"
   version="1.1"
   id="svg51"
   sodipodi:docname="icon-addlink.svg"
   inkscape:version="1.2.2 (b0a8486, 2022-12-01)"
   xmlns:inkscape="http://www.inkscape.org/namespaces/inkscape"
   xmlns:sodipodi="http://sodipodi.sourceforge.net/DTD/sodipodi-0.dtd"
   xmlns="http://www.w3.org/2000/svg"
   xmlns:svg="http://www.w3.org/2000/svg">
  <defs
     id="defs55" />
  <sodipodi:namedview
     id="namedview53"
     pagecolor="#ffffff"
     bordercolor="#000000"
     borderopacity="0.25"
     inkscape:showpageshadow="2"
     inkscape:pageopacity="0.0"
     inkscape:pagecheckerboard="0"
     inkscape:deskcolor="#d1d1d1"
     showgrid="false"
     inkscape:zoom="18.153846"
     inkscape:cx="6.6652543"
     inkscape:cy="6.7754238"
     inkscape:window-width="1574"
     inkscape:window-height="914"
     inkscape:window-x="0"
     inkscape:window-y="25"
     inkscape:window-maximized="0"
     inkscape:current-layer="svg51" />
  <path
     fill="#333333"
     d="M1600 796v192q0 40-28 68t-68 28h-416v416q0 40-28 68t-68 28h-192q-40 0-68-28t-28-68v-416h-416q-40 0-68-28t-28-68v-192q0-40 28-68t68-28h416v-416q0-40 28-68t68-28h192q40 0 68 28t28 68v416h416q40 0 68 28t28 68z"
     id="path49"
     style="fill:#ff0000;fill-opacity:1" />
</svg>
