<?xml version="1.0" encoding="UTF-8" standalone="no"?>
<svg
   width="16"
   height="32"
   viewBox="0 0 1792 3584"
   version="1.1"
   id="svg8324"
   sodipodi:docname="icon-clock.svg"
   inkscape:version="1.2.2 (b0a8486, 2022-12-01)"
   xmlns:inkscape="http://www.inkscape.org/namespaces/inkscape"
   xmlns:sodipodi="http://sodipodi.sourceforge.net/DTD/sodipodi-0.dtd"
   xmlns:xlink="http://www.w3.org/1999/xlink"
   xmlns="http://www.w3.org/2000/svg"
   xmlns:svg="http://www.w3.org/2000/svg">
  <sodipodi:namedview
     id="namedview8326"
     pagecolor="#ffffff"
     bordercolor="#000000"
     borderopacity="0.25"
     inkscape:showpageshadow="2"
     inkscape:pageopacity="0.0"
     inkscape:pagecheckerboard="0"
     inkscape:deskcolor="#d1d1d1"
     showgrid="false"
     inkscape:zoom="7.375"
     inkscape:cx="8.2711864"
     inkscape:cy="16.271186"
     inkscape:window-width="1386"
     inkscape:window-height="618"
     inkscape:window-x="0"
     inkscape:window-y="25"
     inkscape:window-maximized="0"
     inkscape:current-layer="svg8324" />
  <defs
     id="defs8318">
    <g
       id="icon">
      <path
         d="M1024 544v448q0 14-9 23t-23 9h-320q-14 0-23-9t-9-23v-64q0-14 9-23t23-9h224v-352q0-14 9-23t23-9h64q14 0 23 9t9 23zm416 352q0-148-73-273t-198-198-273-73-273 73-198 198-73 273 73 273 198 198 273 73 273-73 198-198 73-273zm224 0q0 209-103 385.5t-279.5 279.5-385.5 103-385.5-103-279.5-279.5-103-385.5 103-385.5 279.5-279.5 385.5-103 385.5 103 279.5 279.5 103 385.5z"
         id="path8315" />
    </g>
  </defs>
  <use
     xlink:href="#icon"
     x="0"
     y="0"
     fill="#447e9b"
     id="use8320"
     style="fill:#000000;fill-opacity:1" />
  <use
     xlink:href="#icon"
     x="0"
     y="1792"
     fill="#003366"
     id="use8322"
     style="fill:#ff0000;fill-opacity:1" />
</svg>
